<svg id="kity_svg_6" xmlns="http://www.w3.org/2000/svg" xmlns:xlink="http://www.w3.org/1999/xlink" version="1.1" width="738" height="222" contenteditable="true" class="loading-target" style="font-family: Arial, &quot;Microsoft Yahei&quot;,  &quot;Heiti SC&quot;; background: #fbfbfb" viewBox="144 82 738 222"><defs id="kity_defs_7"><linearGradient id="kity_linearGradient_12" x1="0" y1="0" x2="0" y2="1"><stop id="kity_stop_13" offset="0" stop-color="rgb(255, 255, 255)"></stop><stop id="kity_stop_14" offset="1" stop-color="rgb(204, 204, 204)"></stop></linearGradient><marker id="kity_marker_2" orient="auto" refX="6" refY="0" viewBox="-7 -7 14 14" markerWidth="7" markerHeight="7" markerUnits="userSpaceOnUse"><path id="kity_path_3" fill="rgb(115, 161, 191)" stroke="none" d="M6,0A6,6,0,1,1,-6,0A6,6,0,1,1,6,0"></path></marker></defs><g id="kity_g_8" transform="translate(0.5, 0.5)"><g id="minder_1" text-rendering="optimize-speed" transform="translate( 501 193 )"><g id="minder_connect_group_1"><path id="kity_path_956" fill="none" stroke="rgb(115, 161, 191)" stroke-width="1" marker-end="url(#kity_marker_2)" d="M21 0A163,74,0,0,1,184 -74" transform="translate( 0 0 )"></path><path id="kity_path_997" fill="none" stroke="rgb(115, 161, 191)" stroke-width="1" marker-end="url(#kity_marker_2)" d="M21 0A163,0,0,0,1,184 0" transform="translate( 0 0 )"></path><path id="kity_path_1013" fill="none" stroke="rgb(115, 161, 191)" stroke-width="1" marker-end="url(#kity_marker_2)" d="M21 0A163,74,0,0,0,184 74" transform="translate( 0 0 )"></path><path id="kity_path_1094" fill="none" stroke="rgb(115, 161, 191)" stroke-width="1" marker-end="url(#kity_marker_2)" d="M21 0A163,37,0,0,0,-142 -37" transform="translate( 0 0 )"></path><path id="kity_path_1130" fill="none" stroke="rgb(115, 161, 191)" stroke-width="1" marker-end="url(#kity_marker_2)" d="M21 0A163,37,0,0,1,-142 37" transform="translate( 0 0 )"></path></g><g id="kity_g_15"><path id="kity_path_16" fill="none" stroke="none" d="M0,0h0v0h0z"></path></g><g id="kity_g_17"><path id="kity_path_18" fill="none" stroke="none" d="M0,0h0v0h0z"></path><path id="kity_path_19" fill="none" stroke="none"></path></g><g id="minder_node_1" transform="matrix( 1 0 0 1 0 0 )"><path id="kity_path_775" fill="rgba(0, 0, 0, .25)" stroke="none" d="M1,-17h169a22,22,0,0,1,22,22v0a22,22,0,0,1,-22,22h-169a22,22,0,0,1,-22,-22v0a22,22,0,0,1,22,-22z" display="none"></path><path id="node_outline_1" fill="rgb(115, 161, 191)" stroke="rgb(115, 161, 191)" d="M-19,-20h80a5,5,0,0,1,5,5v30a5,5,0,0,1,-5,5h-80a5,5,0,0,1,-5,-5v-30a5,5,0,0,1,5,-5z" stroke-width="3"></path><g id="node_text_1" transform="translate( 0 -2.4 )" fill="white" style="cursor: default;"><text id="kity_text_23" text-rendering="inherit" dominant-baseline="text-before-edge" dy="0" font-size="16" y="-8">manji</text></g></g><g id="minder_node_266" transform="matrix( 1 0 0 1 206 74 )"><g id="node_expander_76" transform="translate( -27 0 )" style="cursor: pointer;" display="none"><path id="kity_path_1018" fill="white" stroke="gray" d="M6,0A6,6,0,1,1,-6,0A6,6,0,1,1,6,0"></path><path id="kity_path_1019" fill="none" stroke="gray"></path></g><path id="node_outline_77" fill="rgb(238, 243, 246)" stroke="rgb(115, 161, 191)" d="M-17,-17h116a3,3,0,0,1,3,3v28a3,3,0,0,1,-3,3h-116a3,3,0,0,1,-3,-3v-28a3,3,0,0,1,3,-3z" stroke-width="1"></path><g id="node_text_77" transform="translate( 0 -2.1 )" fill="black" style="cursor: default;"><text id="kity_text_1015" text-rendering="inherit" dominant-baseline="text-before-edge" dy="0" font-size="14" y="-7">nedroid</text></g><a id="kity_a_1070" xmlns:xlink="http://www.w3.org/1999/xlink" xlink:href="http://www.nedroid.com/" target="_blank" xlink:title="画风独特的漫画(http://www.nedroid.com/)" transform="translate( 60 -5 )" style="cursor: pointer;"><path id="kity_path_1072" fill="rgba(255, 255, 255, 0)" stroke="none" d="M2,-6h16a4,4,0,0,1,4,4v14a4,4,0,0,1,-4,4h-16a4,4,0,0,1,-4,-4v-14a4,4,0,0,1,4,-4z"></path><path id="kity_path_1071" fill="#666" stroke="none" d="M16.614,10.224h-1.278c-1.668,0-3.07-1.07-3.599-2.556h4.877c0.707,0,1.278-0.571,1.278-1.278V3.834 c0-0.707-0.571-1.278-1.278-1.278h-4.877C12.266,1.071,13.668,0,15.336,0h1.278c2.116,0,3.834,1.716,3.834,3.834V6.39 C20.448,8.508,18.73,10.224,16.614,10.224z M5.112,5.112c0-0.707,0.573-1.278,1.278-1.278h7.668c0.707,0,1.278,0.571,1.278,1.278 S14.765,6.39,14.058,6.39H6.39C5.685,6.39,5.112,5.819,5.112,5.112z M2.556,3.834V6.39c0,0.707,0.573,1.278,1.278,1.278h4.877 c-0.528,1.486-1.932,2.556-3.599,2.556H3.834C1.716,10.224,0,8.508,0,6.39V3.834C0,1.716,1.716,0,3.834,0h1.278 c1.667,0,3.071,1.071,3.599,2.556H3.834C3.129,2.556,2.556,3.127,2.556,3.834z"></path></a></g><g id="minder_node_239" transform="matrix( 1 0 0 1 206 -74 )"><g id="node_expander_73" transform="translate( -27 0 )" style="cursor: pointer;" display="none"><path id="kity_path_961" fill="white" stroke="gray" d="M6,0A6,6,0,1,1,-6,0A6,6,0,1,1,6,0"></path><path id="kity_path_962" fill="none" stroke="gray"></path></g><path id="node_outline_74" fill="rgb(238, 243, 246)" stroke="rgb(115, 161, 191)" d="M-17,-17h169a3,3,0,0,1,3,3v28a3,3,0,0,1,-3,3h-169a3,3,0,0,1,-3,-3v-28a3,3,0,0,1,3,-3z" stroke-width="1"></path><g id="node_text_74" transform="translate( 0 -2.1 )" fill="black" style="cursor: default;"><text id="kity_text_958" text-rendering="inherit" dominant-baseline="text-before-edge" dy="0" font-size="14" y="-7">&#xa0;abstruse goose</text></g><a id="kity_a_975" xmlns:xlink="http://www.w3.org/1999/xlink" xlink:href="http://www.abstrusegoose.com" target="_blank" xlink:title="goose(http://www.abstrusegoose.com)" transform="translate( 113 -5 )" style="cursor: pointer;"><path id="kity_path_977" fill="rgba(255, 255, 255, 0)" stroke="none" d="M2,-6h16a4,4,0,0,1,4,4v14a4,4,0,0,1,-4,4h-16a4,4,0,0,1,-4,-4v-14a4,4,0,0,1,4,-4z"></path><path id="kity_path_976" fill="#666" stroke="none" d="M16.614,10.224h-1.278c-1.668,0-3.07-1.07-3.599-2.556h4.877c0.707,0,1.278-0.571,1.278-1.278V3.834 c0-0.707-0.571-1.278-1.278-1.278h-4.877C12.266,1.071,13.668,0,15.336,0h1.278c2.116,0,3.834,1.716,3.834,3.834V6.39 C20.448,8.508,18.73,10.224,16.614,10.224z M5.112,5.112c0-0.707,0.573-1.278,1.278-1.278h7.668c0.707,0,1.278,0.571,1.278,1.278 S14.765,6.39,14.058,6.39H6.39C5.685,6.39,5.112,5.819,5.112,5.112z M2.556,3.834V6.39c0,0.707,0.573,1.278,1.278,1.278h4.877 c-0.528,1.486-1.932,2.556-3.599,2.556H3.834C1.716,10.224,0,8.508,0,6.39V3.834C0,1.716,1.716,0,3.834,0h1.278 c1.667,0,3.071,1.071,3.599,2.556H3.834C3.129,2.556,2.556,3.127,2.556,3.834z"></path></a></g><g id="minder_node_257" transform="matrix( 1 0 0 1 206 0 )"><g id="node_expander_75" transform="translate( -27 0 )" style="cursor: pointer;" display="none"><path id="kity_path_1002" fill="white" stroke="gray" d="M6,0A6,6,0,1,1,-6,0A6,6,0,1,1,6,0"></path><path id="kity_path_1003" fill="none" stroke="gray"></path></g><path id="node_outline_76" fill="rgb(238, 243, 246)" stroke="rgb(115, 161, 191)" d="M-17,-17h119a3,3,0,0,1,3,3v28a3,3,0,0,1,-3,3h-119a3,3,0,0,1,-3,-3v-28a3,3,0,0,1,3,-3z" stroke-width="1"></path><g id="node_text_76" transform="translate( 0 -2.1 )" fill="black" style="cursor: default;"><text id="kity_text_999" text-rendering="inherit" dominant-baseline="text-before-edge" dy="0" font-size="14" y="-7">nerfnow</text></g><a id="kity_a_1059" xmlns:xlink="http://www.w3.org/1999/xlink" xlink:href="http://www.nerfnow.com" target="_blank" xlink:title="关于未来年代中发生的一些故事(http://www.nerfnow.com)" transform="translate( 63 -5 )" style="cursor: pointer;"><path id="kity_path_1061" fill="rgba(255, 255, 255, 0)" stroke="none" d="M2,-6h16a4,4,0,0,1,4,4v14a4,4,0,0,1,-4,4h-16a4,4,0,0,1,-4,-4v-14a4,4,0,0,1,4,-4z"></path><path id="kity_path_1060" fill="#666" stroke="none" d="M16.614,10.224h-1.278c-1.668,0-3.07-1.07-3.599-2.556h4.877c0.707,0,1.278-0.571,1.278-1.278V3.834 c0-0.707-0.571-1.278-1.278-1.278h-4.877C12.266,1.071,13.668,0,15.336,0h1.278c2.116,0,3.834,1.716,3.834,3.834V6.39 C20.448,8.508,18.73,10.224,16.614,10.224z M5.112,5.112c0-0.707,0.573-1.278,1.278-1.278h7.668c0.707,0,1.278,0.571,1.278,1.278 S14.765,6.39,14.058,6.39H6.39C5.685,6.39,5.112,5.819,5.112,5.112z M2.556,3.834V6.39c0,0.707,0.573,1.278,1.278,1.278h4.877 c-0.528,1.486-1.932,2.556-3.599,2.556H3.834C1.716,10.224,0,8.508,0,6.39V3.834C0,1.716,1.716,0,3.834,0h1.278 c1.667,0,3.071,1.071,3.599,2.556H3.834C3.129,2.556,2.556,3.127,2.556,3.834z"></path></a></g><g id="minder_node_330" transform="matrix( 1 0 0 1 -265 -37 )"><g id="node_expander_77" transform="translate( 128 0 )" style="cursor: pointer;" display="none"><path id="kity_path_1099" fill="white" stroke="gray" d="M6,0A6,6,0,1,1,-6,0A6,6,0,1,1,6,0"></path><path id="kity_path_1100" fill="none" stroke="gray"></path></g><path id="node_outline_78" fill="rgb(238, 243, 246)" stroke="rgb(115, 161, 191)" d="M-17,-17h135a3,3,0,0,1,3,3v28a3,3,0,0,1,-3,3h-135a3,3,0,0,1,-3,-3v-28a3,3,0,0,1,3,-3z" stroke-width="1"></path><g id="node_text_78" transform="translate( 0 -2.1 )" fill="black" style="cursor: default;"><text id="kity_text_1096" text-rendering="inherit" dominant-baseline="text-before-edge" dy="0" font-size="14" y="-7">pbfcomics</text></g><a id="kity_a_1111" xmlns:xlink="http://www.w3.org/1999/xlink" xlink:href="http://www.pbfcomics.com/" target="_blank" xlink:title="充满想像无厘头的漫画(http://www.pbfcomics.com/)" transform="translate( 79 -5 )" style="cursor: pointer;"><path id="kity_path_1113" fill="rgba(255, 255, 255, 0)" stroke="none" d="M2,-6h16a4,4,0,0,1,4,4v14a4,4,0,0,1,-4,4h-16a4,4,0,0,1,-4,-4v-14a4,4,0,0,1,4,-4z"></path><path id="kity_path_1112" fill="#666" stroke="none" d="M16.614,10.224h-1.278c-1.668,0-3.07-1.07-3.599-2.556h4.877c0.707,0,1.278-0.571,1.278-1.278V3.834 c0-0.707-0.571-1.278-1.278-1.278h-4.877C12.266,1.071,13.668,0,15.336,0h1.278c2.116,0,3.834,1.716,3.834,3.834V6.39 C20.448,8.508,18.73,10.224,16.614,10.224z M5.112,5.112c0-0.707,0.573-1.278,1.278-1.278h7.668c0.707,0,1.278,0.571,1.278,1.278 S14.765,6.39,14.058,6.39H6.39C5.685,6.39,5.112,5.819,5.112,5.112z M2.556,3.834V6.39c0,0.707,0.573,1.278,1.278,1.278h4.877 c-0.528,1.486-1.932,2.556-3.599,2.556H3.834C1.716,10.224,0,8.508,0,6.39V3.834C0,1.716,1.716,0,3.834,0h1.278 c1.667,0,3.071,1.071,3.599,2.556H3.834C3.129,2.556,2.556,3.127,2.556,3.834z"></path></a></g><g id="minder_node_356" transform="matrix( 1 0 0 1 -317 37 )"><g id="node_expander_78" transform="translate( 180 0 )" style="cursor: pointer;" display="none"><path id="kity_path_1135" fill="white" stroke="gray" d="M6,0A6,6,0,1,1,-6,0A6,6,0,1,1,6,0"></path><path id="kity_path_1136" fill="none" stroke="gray"></path></g><path id="node_outline_79" fill="rgb(238, 243, 246)" stroke="rgb(115, 161, 191)" d="M-17,-17h187a3,3,0,0,1,3,3v28a3,3,0,0,1,-3,3h-187a3,3,0,0,1,-3,-3v-28a3,3,0,0,1,3,-3z" stroke-width="1"></path><g id="node_text_79" transform="translate( 0 -2.1 )" fill="black" style="cursor: default;"><text id="kity_text_1132" text-rendering="inherit" dominant-baseline="text-before-edge" dy="0" font-size="14" y="-7">three word phrase</text></g><a id="kity_a_1149" xmlns:xlink="http://www.w3.org/1999/xlink" xlink:href="http://www.threewordphrase.com/" target="_blank" xlink:title="黑线条风格，黑色幽默为主(http://www.threewordphrase.com/)" transform="translate( 131 -5 )" style="cursor: pointer;"><path id="kity_path_1151" fill="rgba(255, 255, 255, 0)" stroke="none" d="M2,-6h16a4,4,0,0,1,4,4v14a4,4,0,0,1,-4,4h-16a4,4,0,0,1,-4,-4v-14a4,4,0,0,1,4,-4z"></path><path id="kity_path_1150" fill="#666" stroke="none" d="M16.614,10.224h-1.278c-1.668,0-3.07-1.07-3.599-2.556h4.877c0.707,0,1.278-0.571,1.278-1.278V3.834 c0-0.707-0.571-1.278-1.278-1.278h-4.877C12.266,1.071,13.668,0,15.336,0h1.278c2.116,0,3.834,1.716,3.834,3.834V6.39 C20.448,8.508,18.73,10.224,16.614,10.224z M5.112,5.112c0-0.707,0.573-1.278,1.278-1.278h7.668c0.707,0,1.278,0.571,1.278,1.278 S14.765,6.39,14.058,6.39H6.39C5.685,6.39,5.112,5.819,5.112,5.112z M2.556,3.834V6.39c0,0.707,0.573,1.278,1.278,1.278h4.877 c-0.528,1.486-1.932,2.556-3.599,2.556H3.834C1.716,10.224,0,8.508,0,6.39V3.834C0,1.716,1.716,0,3.834,0h1.278 c1.667,0,3.071,1.071,3.599,2.556H3.834C3.129,2.556,2.556,3.127,2.556,3.834z"></path></a><path id="_kity_selection" fill="rgb(0, 61, 102)" stroke="none" opacity="1" transform="translate( -0.5 -1.5 )" style="cursor: text; display: none;" d="M39,-6h2v16h-2v-16z"></path></g></g></g></svg>